<svg width="50" height="50" viewBox="0 0 50 50" fill="none" xmlns="http://www.w3.org/2000/svg">
<path d="M26.2353 48.4542L26.2124 48.4584L26.0645 48.5313L26.0228 48.5396L25.9936 48.5313L25.8457 48.4584C25.8235 48.4514 25.8068 48.4549 25.7957 48.4688L25.7874 48.4896L25.752 49.3813L25.7624 49.423L25.7832 49.45L25.9999 49.6042L26.0311 49.6125L26.0561 49.6042L26.2728 49.45L26.2978 49.4167L26.3061 49.3813L26.2707 48.4917C26.2651 48.4695 26.2533 48.457 26.2353 48.4542ZM26.7874 48.2188L26.7603 48.223L26.3749 48.4167L26.354 48.4375L26.3478 48.4605L26.3853 49.3563L26.3957 49.3813L26.4124 49.3959L26.8311 49.5896C26.8575 49.5966 26.8776 49.591 26.8915 49.573L26.8999 49.5438L26.829 48.2646C26.8221 48.2396 26.8082 48.2243 26.7874 48.2188ZM25.2978 48.223C25.2886 48.2174 25.2776 48.2156 25.2672 48.2179C25.2567 48.2202 25.2475 48.2265 25.2415 48.2355L25.229 48.2646L25.1582 49.5438C25.1596 49.5688 25.1714 49.5855 25.1936 49.5938L25.2249 49.5896L25.6436 49.3959L25.6645 49.3792L25.6728 49.3563L25.7082 48.4605L25.702 48.4355L25.6811 48.4146L25.2978 48.223Z" fill="#000815"/>
<path d="M21.7999 6.83756C22.1728 6.39027 22.6352 6.0261 23.1575 5.76853C23.6797 5.51096 24.2501 5.36571 24.832 5.34216C25.4138 5.3186 25.9941 5.41726 26.5354 5.63177C27.0768 5.84628 27.5672 6.17187 27.9749 6.58756L28.1999 6.83756L36.3937 16.6667H42.6124C43.0496 16.6658 43.4821 16.7572 43.8815 16.935C44.2809 17.1129 44.6383 17.373 44.9302 17.6985C45.222 18.0241 45.4419 18.4076 45.5752 18.8239C45.7086 19.2403 45.7525 19.6801 45.7041 20.1146L45.5124 21.7105L45.3041 23.2521L45.1333 24.4063L44.9354 25.6459L44.7104 26.948L44.4562 28.298L44.1729 29.6751C44.0229 30.3695 43.8617 31.0632 43.6895 31.7563C43.2284 33.5855 42.6494 35.3831 41.9562 37.1376L41.4958 38.2626L41.0499 39.2792L40.6291 40.1834L40.4333 40.5876L39.9145 41.6084C39.2479 42.8792 37.9895 43.6292 36.6583 43.7376L36.3249 43.7501H13.6562C12.9279 43.7555 12.2117 43.563 11.5843 43.1932C10.9568 42.8233 10.4416 42.2899 10.0937 41.6501L9.61036 40.7126L9.23536 39.9417L9.03744 39.5146L8.62078 38.5792C7.66931 36.3699 6.89737 34.0875 6.31244 31.7542C6.19934 31.3012 6.091 30.847 5.98744 30.3917L5.69161 29.0417L5.42703 27.7209L5.19369 26.4438L4.98536 25.2209L4.80411 24.0667L4.64994 22.998L4.46244 21.5751L4.32494 20.4167L4.28953 20.098C4.24643 19.6887 4.28516 19.2749 4.40345 18.8807C4.52174 18.4865 4.71724 18.1198 4.97857 17.8018C5.2399 17.4839 5.56185 17.2211 5.92568 17.0287C6.28951 16.8364 6.68796 16.7183 7.09786 16.6813L7.38119 16.6667H13.6083L21.7999 6.83756ZM41.4229 20.8334H8.56869L8.69786 21.8417L8.85619 22.9834L9.04786 24.2417L9.27286 25.5917C9.35619 26.0542 9.44369 26.5278 9.53536 27.0126L9.83328 28.4855C9.99161 29.2313 10.1666 29.9896 10.3541 30.7438C10.8828 32.8497 11.5795 34.9097 12.4374 36.9042L12.8458 37.823L13.2249 38.623L13.5645 39.2959L13.7145 39.5834H36.2708L36.5916 38.9521L36.9604 38.1917L37.3645 37.3105C38.1291 35.5917 39.0041 33.3146 39.6458 30.7438C39.9062 29.7021 40.1374 28.6438 40.3437 27.6042L40.6354 26.0667L40.8854 24.5896L40.9958 23.8834L41.1937 22.5563L41.3541 21.3688L41.4229 20.8334ZM20.8041 26.7417L21.8458 32.9917C21.9185 33.5285 21.7793 34.0725 21.4577 34.5083C21.1362 34.9442 20.6575 35.2377 20.1231 35.3266C19.5888 35.4154 19.0409 35.2927 18.5955 34.9844C18.1502 34.6761 17.8424 34.2065 17.7374 33.6751L16.6958 27.4251C16.6418 27.1515 16.6432 26.8698 16.7 26.5968C16.7569 26.3238 16.868 26.065 17.0267 25.8357C17.1854 25.6064 17.3886 25.4113 17.6241 25.262C17.8596 25.1126 18.1227 25.0121 18.3978 24.9664C18.6729 24.9206 18.9544 24.9305 19.2256 24.9956C19.4967 25.0606 19.7521 25.1795 19.9765 25.345C20.2009 25.5106 20.3898 25.7195 20.532 25.9594C20.6741 26.1994 20.7667 26.4654 20.8041 26.7417ZM31.3499 25.0001L31.5916 25.0271C32.0959 25.1104 32.5519 25.376 32.8731 25.7736C33.1942 26.1712 33.358 26.6729 33.3333 27.1834L33.3062 27.4251L32.2645 33.6751C32.1762 34.1982 31.8915 34.668 31.4687 34.9884C31.0458 35.3089 30.5166 35.456 29.989 35.3996C29.4615 35.3433 28.9753 35.0878 28.6296 34.6852C28.284 34.2827 28.105 33.7634 28.1291 33.2334L28.1562 32.9917L29.1979 26.7417C29.281 26.2382 29.5461 25.7827 29.9427 25.4617C30.3394 25.1407 30.8402 24.9764 31.3499 25.0001ZM24.9999 9.50422L19.0312 16.6667H30.9687L24.9999 9.50422Z" fill="#000815"/>
</svg>
